<svg width="35" height="35" viewBox="0 0 35 35" fill="none" xmlns="http://www.w3.org/2000/svg">
<path fill-rule="evenodd" clip-rule="evenodd" d="M33.0552 34.9862C34.1215 34.9862 34.986 34.1216 34.986 33.0553V1.9309C34.986 0.864251 34.1213 0 33.0552 0H1.9309C0.864251 0 0 0.864382 0 1.9309V33.0552C0 34.1216 0.864251 34.9861 1.9309 34.9861H33.0552V34.9862ZM24.1398 34.9862V21.4377H28.6874L29.3683 16.1575H24.1396V12.7864C24.1396 11.2577 24.5641 10.2159 26.7564 10.2159L29.5523 10.2146V5.49212C29.0687 5.42788 27.4089 5.28408 25.4782 5.28408C21.4469 5.28408 18.687 7.7447 18.687 12.2636V16.1575H14.1277V21.4377H18.687V34.9861H24.1398V34.9862Z" fill="white"/>
</svg>
