<svg width="35" height="35" viewBox="0 0 35 35" fill="none" xmlns="http://www.w3.org/2000/svg">
<path d="M11.6681 17.5C11.6681 14.2785 14.279 11.6662 17.5007 11.6662C20.7224 11.6662 23.3347 14.2785 23.3347 17.5C23.3347 20.7215 20.7224 23.3338 17.5007 23.3338C14.279 23.3338 11.6681 20.7215 11.6681 17.5ZM8.5143 17.5C8.5143 22.463 12.5375 26.486 17.5007 26.486C22.4639 26.486 26.4871 22.463 26.4871 17.5C26.4871 12.537 22.4639 8.51396 17.5007 8.51396C12.5375 8.51396 8.5143 12.537 8.5143 17.5ZM24.7428 8.15766C24.7423 9.31746 25.6822 10.258 26.842 10.2585C28.0019 10.259 28.9425 9.31914 28.9429 8.15934C28.9434 6.99954 28.0035 6.05896 26.8437 6.0585H26.8429C25.6836 6.05904 24.7438 6.99841 24.7428 8.15766ZM10.4304 31.7446C8.72417 31.6669 7.79677 31.3827 7.18047 31.1426C6.36339 30.8245 5.78041 30.4457 5.16747 29.8336C4.55452 29.2215 4.17511 28.6391 3.85841 27.8221C3.61816 27.2061 3.33395 26.2784 3.25639 24.5722C3.17155 22.7276 3.15461 22.1735 3.15461 17.5001C3.15461 12.8268 3.17295 12.2742 3.25639 10.428C3.33409 8.72186 3.6204 7.79604 3.85841 7.17822C4.17651 6.36118 4.55536 5.77822 5.16747 5.1653C5.77957 4.55238 6.36199 4.17298 7.18047 3.8563C7.79649 3.61606 8.72417 3.33186 10.4304 3.2543C12.2751 3.16946 12.8293 3.15252 17.5007 3.15252C22.1721 3.15252 22.7268 3.17086 24.5731 3.2543C26.2793 3.332 27.2052 3.6183 27.823 3.8563C28.6401 4.17298 29.2231 4.55322 29.836 5.1653C30.449 5.77738 30.827 6.36118 31.1451 7.17822C31.3853 7.79422 31.6695 8.72186 31.7471 10.428C31.832 12.2742 31.8489 12.8268 31.8489 17.5001C31.8489 22.1735 31.832 22.7261 31.7471 24.5722C31.6694 26.2784 31.3838 27.2058 31.1451 27.8221C30.827 28.6391 30.4481 29.2221 29.836 29.8336C29.2239 30.4451 28.6401 30.8245 27.823 31.1426C27.207 31.3828 26.2793 31.667 24.5731 31.7446C22.7284 31.8294 22.1742 31.8464 17.5007 31.8464C12.8272 31.8464 12.2746 31.8294 10.4304 31.7446ZM10.2855 0.10598C8.42246 0.19082 7.14939 0.48622 6.0376 0.91882C4.8862 1.36556 3.91148 1.9649 2.93746 2.93734C1.96344 3.90978 1.36561 4.886 0.918857 6.03736C0.486239 7.1498 0.190828 8.42212 0.105984 10.2851C0.0197408 12.151 0 12.7476 0 17.5C0 22.2524 0.0197408 22.849 0.105984 24.7149C0.190828 26.578 0.486239 27.8502 0.918857 28.9626C1.36561 30.1133 1.96358 31.0906 2.93746 32.0627C3.91134 33.0347 4.8862 33.6332 6.0376 34.0812C7.15149 34.5138 8.42246 34.8092 10.2855 34.894C12.1525 34.9789 12.7481 35 17.5007 35C22.2533 35 22.8499 34.9803 24.7159 34.894C26.5791 34.8092 27.8513 34.5138 28.9638 34.0812C30.1145 33.6332 31.0899 33.0351 32.0639 32.0627C33.038 31.0902 33.6345 30.1133 34.0825 28.9626C34.5152 27.8502 34.812 26.5779 34.8954 24.7149C34.9803 22.8476 35 22.2524 35 17.5C35 12.7476 34.9803 12.151 34.8954 10.2851C34.8106 8.42198 34.5152 7.1491 34.0825 6.03736C33.6345 4.8867 33.0364 3.91132 32.0639 2.93734C31.0915 1.96336 30.1145 1.36556 28.9652 0.91882C27.8513 0.48622 26.5789 0.18942 24.7173 0.10598C22.8513 0.02114 22.2547 0 17.5021 0C12.7495 0 12.1525 0.01974 10.2855 0.10598Z" fill="white"/>
</svg>
